{
  "accessors": [
    {
      "bufferView": 2,
      "componentType": 5126,
      "count": 65532,
      "max": [
        2.8719801902770996,
        3.367703914642334,
        4.049102306365967
      ],
      "min": [
        -2.9928598403930664,
        -2.1024296283721924,
        -2.9676730632781982
      ],
      "type": "VEC3"
    },
    {
      "bufferView": 2,
      "byteOffset": 786384,
      "componentType": 5126,
      "count": 65532,
      "max": [
        0.999975323677063,
        0.9999971389770508,
        0.999975860118866
      ],
      "min": [
        -0.9999996423721313,
        -0.9999980330467224,
        -0.999981701374054
      ],
      "type": "VEC3"
    },
    {
      "bufferView": 1,
      "componentType": 5126,
      "count": 65532,
      "max": [
        0.9999486804008484,
        0.9985814094543457
      ],
      "min": [
        8.069888281170279e-06,
        0.003096342086791992
      ],
      "type": "VEC2"
    },
    {
      "bufferView": 0,
      "componentType": 5125,
      "count": 317787,
      "type": "SCALAR"
    },
    {
      "bufferView": 2,
      "byteOffset": 1572768,
      "componentType": 5126,
      "count": 39926,
      "max": [
        2.8719801902770996,
        2.0381665229797363,
        3.954596757888794
      ],
      "min": [
        -3.0392515659332275,
        -2.1089954376220703,
        -3.004915714263916
      ],
      "type": "VEC3"
    },
    {
      "bufferView": 2,
      "byteOffset": 2051880,
      "componentType": 5126,
      "count": 39926,
      "max": [
        0.9999349117279053,
        0.9999991655349731,
        0.99991774559021
      ],
      "min": [
        -0.9999946355819702,
        -0.9999967217445374,
        -0.9999547004699707
      ],
      "type": "VEC3"
    },
    {
      "bufferView": 1,
      "byteOffset": 524256,
      "componentType": 5126,
      "count": 39926,
      "max": [
        0.9998876452445984,
        0.9980320930480957
      ],
      "min": [
        0.0001911756698973477,
        -1.6450881958007813e-05
      ],
      "type": "VEC2"
    },
    {
      "bufferView": 0,
      "byteOffset": 1271148,
      "componentType": 5125,
      "count": 172488,
      "type": "SCALAR"
    }
  ],
  "asset": {
    "extras": {
      "author": "Dmitrii (https://sketchfab.com/pankow)",
      "license": "CC-BY-4.0 (http://creativecommons.org/licenses/by/4.0/)",
      "source": "https://sketchfab.com/3d-models/psychedelic-erwin-ad01496fa9454b4dbaebf8e2b641750d",
      "title": "Psychedelic ERWIN"
    },
    "generator": "Sketchfab-12.67.0",
    "version": "2.0"
  },
  "bufferViews": [
    {
      "buffer": 0,
      "byteLength": 1961100,
      "name": "floatBufferViews",
      "target": 34963
    },
    {
      "buffer": 0,
      "byteLength": 843664,
      "byteOffset": 1961100,
      "byteStride": 8,
      "name": "floatBufferViews",
      "target": 34962
    },
    {
      "buffer": 0,
      "byteLength": 2530992,
      "byteOffset": 2804764,
      "byteStride": 12,
      "name": "floatBufferViews",
      "target": 34962
    }
  ],
  "buffers": [
    {
      "byteLength": 5335756,
      "uri": "scene.bin"
    }
  ],
  "extensionsUsed": [
    "KHR_materials_unlit"
  ],
  "images": [
    {
      "uri": "textures/Material_0_baseColor.jpeg"
    }
  ],
  "materials": [
    {
      "extensions": {
        "KHR_materials_unlit": {}
      },
      "name": "Material_0",
      "pbrMetallicRoughness": {
        "baseColorTexture": {
          "index": 0
        },
        "metallicFactor": 0.0
      }
    }
  ],
  "meshes": [
    {
      "name": "Scene",
      "primitives": [
        {
          "attributes": {
            "NORMAL": 1,
            "POSITION": 0,
            "TEXCOORD_0": 2
          },
          "indices": 3,
          "material": 0,
          "mode": 4
        }
      ]
    },
    {
      "name": "Scene",
      "primitives": [
        {
          "attributes": {
            "NORMAL": 5,
            "POSITION": 4,
            "TEXCOORD_0": 6
          },
          "indices": 7,
          "material": 0,
          "mode": 4
        }
      ]
    }
  ],
  "nodes": [
    {
      "children": [
        1
      ],
      "matrix": [
        3.6236164569854736,
        0.0,
        0.0,
        0.0,
        0.0,
        8.046044845911812e-16,
        -3.6236164569854736,
        0.0,
        0.0,
        3.6236164569854736,
        8.046044845911812e-16,
        0.0,
        0.0,
        0.0,
        0.0,
        1.0
      ],
      "name": "Sketchfab_model"
    },
    {
      "children": [
        2
      ],
      "matrix": [
        1.0,
        0.0,
        0.0,
        0.0,
        0.0,
        2.220446049250313e-16,
        1.0,
        0.0,
        0.0,
        -1.0,
        2.220446049250313e-16,
        0.0,
        0.0,
        0.0,
        0.0,
        1.0
      ],
      "name": "USDRoot"
    },
    {
      "children": [
        3
      ],
      "name": "metascan_20211112_2331"
    },
    {
      "children": [
        4,
        5
      ],
      "name": "Geom"
    },
    {
      "mesh": 0,
      "name": "Scene"
    },
    {
      "mesh": 1,
      "name": "Scene"
    }
  ],
  "samplers": [
    {
      "magFilter": 9729,
      "minFilter": 9987,
      "wrapS": 10497,
      "wrapT": 10497
    }
  ],
  "scene": 0,
  "scenes": [
    {
      "name": "Sketchfab_Scene",
      "nodes": [
        0
      ]
    }
  ],
  "textures": [
    {
      "sampler": 0,
      "source": 0
    }
  ]
}
